<!DOCTYPE svg PUBLIC "-//W3C//DTD SVG 1.1//EN" "http://www.w3.org/Graphics/SVG/1.1/DTD/svg11.dtd">
<!-- Uploaded to: SVG Repo, www.svgrepo.com, Transformed by: SVG Repo Mixer Tools -->
<svg width="64px" height="64px" viewBox="-102.4 -102.4 1228.80 1228.80" class="icon" version="1.1" xmlns="http://www.w3.org/2000/svg" fill="#00b3ff" stroke="#00b3ff" transform="matrix(-1, 0, 0, 1, 0, 0)rotate(0)">
<g id="SVGRepo_bgCarrier" stroke-width="0" transform="translate(0,0), scale(1)">
<path transform="translate(-102.4, -102.4), scale(38.4)" d="M16,28.35433830983109C18.084613447056864,28.965205958917277,20.241257326216562,29.647126252655887,22.374370702460922,29.236517153343943C24.67237820916373,28.794167110890676,27.706636964015527,28.160983731708832,28.479555030903306,25.952113042238913C29.36719444978586,23.415387897382843,25.796071469716928,20.98447761626099,26.192036619904314,18.326265849238602C26.543016230814008,15.970053108638673,30.02785756410064,15.044993457186303,30.453415251229146,12.70110228625588C30.86996199198792,10.406841701909983,29.922332255076395,7.878255199246279,28.41144113441507,6.102205977623548C26.9047840962286,4.331133910728192,24.43008449158285,3.8228415258318926,22.238848696277472,3.0448971922024075C20.20832687753483,2.324010400107205,18.133388279588065,1.3935859019388477,16,1.6958293004168397C13.922460273634218,1.9901604699360969,12.440365905976073,3.7724818330762044,10.558084238218289,4.699745482316027C8.693453272657848,5.618313910850306,6.4983218342011515,5.814271190553968,4.912362440634805,7.157904100833209C3.2114857051450363,8.598895570982576,1.9506570946990014,10.522251188448523,1.205547206800345,12.623262692779049C0.4222126629719154,14.832057549822848,-0.5652405752871716,17.45717616879427,0.5238540636576072,19.532329318679786C1.6765463733650419,21.728661016406082,4.695019621085018,22.041278274704222,6.8199277608209545,23.32086331876339C8.299666414005463,24.21193781479617,9.687639728782331,25.132216544546353,11.202229559225039,25.96267297611149C12.788994481430588,26.83270333584419,14.263392000633104,27.845448929185842,16,28.35433830983109" fill="#00ffe1" strokewidth="0"/>
</g>
<g id="SVGRepo_tracerCarrier" stroke-linecap="round" stroke-linejoin="round" stroke="#0008ff" stroke-width="4.096">
<path d="M944 84.8H80c-27.2 0-48 20.8-48 48v512c0 27.2 20.8 48 48 48h864c27.2 0 48-20.8 48-48v-512c0-27.2-20.8-48-48-48z" fill="#FFFFFF"/>
<path d="M96 148.8h832v480H96z" fill="#E8E8E8"/>
<path d="M257.6 902.4h508.8v36.8H257.6z" fill="#9DE8F7"/>
<path d="M392 724.8h240v145.6H392z" fill="#FFFFFF"/>
<path d="M944 52.8H80c-44.8 0-80 35.2-80 80v512c0 44.8 35.2 80 80 80h280v145.6h-134.4v100.8h572.8v-100.8H664v-145.6h280c44.8 0 80-35.2 80-80v-512c0-44.8-35.2-80-80-80z m-177.6 849.6v36.8H257.6v-36.8h508.8z m-374.4-32v-145.6h240v145.6H392z m600-225.6c0 27.2-20.8 48-48 48H80c-27.2 0-48-20.8-48-48v-512c0-27.2 20.8-48 48-48h864c27.2 0 48 20.8 48 48v512z" fill=""/>
<path d="M620.8 451.2l-97.6-97.6 44.8-44.8-152-25.6 25.6 152 48-48 97.6 97.6z" fill="#FFFFFF"/>
<path d="M568 355.2l65.6-65.6L376 244.8l44.8 257.6 68.8-68.8 97.6 97.6 78.4-78.4-97.6-97.6z m-126.4 80l-25.6-152 152 25.6-44.8 44.8 97.6 97.6-33.6 33.6-97.6-97.6-48 48z" fill=""/>
</g>
<g id="SVGRepo_iconCarrier">
<path d="M944 84.8H80c-27.2 0-48 20.8-48 48v512c0 27.2 20.8 48 48 48h864c27.2 0 48-20.8 48-48v-512c0-27.2-20.8-48-48-48z" fill="#FFFFFF"/>
<path d="M96 148.8h832v480H96z" fill="#E8E8E8"/>
<path d="M257.6 902.4h508.8v36.8H257.6z" fill="#9DE8F7"/>
<path d="M392 724.8h240v145.6H392z" fill="#FFFFFF"/>
<path d="M944 52.8H80c-44.8 0-80 35.2-80 80v512c0 44.8 35.2 80 80 80h280v145.6h-134.4v100.8h572.8v-100.8H664v-145.6h280c44.8 0 80-35.2 80-80v-512c0-44.8-35.2-80-80-80z m-177.6 849.6v36.8H257.6v-36.8h508.8z m-374.4-32v-145.6h240v145.6H392z m600-225.6c0 27.2-20.8 48-48 48H80c-27.2 0-48-20.8-48-48v-512c0-27.2 20.8-48 48-48h864c27.2 0 48 20.8 48 48v512z" fill=""/>
<path d="M620.8 451.2l-97.6-97.6 44.8-44.8-152-25.6 25.6 152 48-48 97.6 97.6z" fill="#FFFFFF"/>
<path d="M568 355.2l65.6-65.6L376 244.8l44.8 257.6 68.8-68.8 97.6 97.6 78.4-78.4-97.6-97.6z m-126.4 80l-25.6-152 152 25.6-44.8 44.8 97.6 97.6-33.6 33.6-97.6-97.6-48 48z" fill=""/>
</g>
</svg>